<svg width="101" height="19" viewBox="0 0 101 19" fill="none" xmlns="http://www.w3.org/2000/svg">
<path d="M7.56231 18.336C5.51431 18.336 3.89031 17.76 2.69031 16.608C1.49031 15.44 0.890313 13.76 0.890313 11.568V7.632C0.890313 5.44 1.49031 3.768 2.69031 2.616C3.89031 1.448 5.51431 0.863999 7.56231 0.863999C9.57831 0.863999 11.1303 1.424 12.2183 2.544C13.3223 3.664 13.8743 5.192 13.8743 7.128V7.272H11.3063V7.056C11.3063 5.92 10.9943 4.992 10.3703 4.272C9.76231 3.552 8.82631 3.192 7.56231 3.192C6.28231 3.192 5.28231 3.584 4.56231 4.368C3.84231 5.136 3.48231 6.208 3.48231 7.584V11.616C3.48231 12.976 3.84231 14.048 4.56231 14.832C5.28231 15.616 6.28231 16.008 7.56231 16.008C8.82631 16.008 9.76231 15.648 10.3703 14.928C10.9943 14.192 11.3063 13.264 11.3063 12.144V11.736H13.8743V12.072C13.8743 14.008 13.3223 15.536 12.2183 16.656C11.1303 17.776 9.57831 18.336 7.56231 18.336ZM22.3602 18.336C21.1762 18.336 20.1202 18.096 19.1922 17.616C18.2802 17.12 17.5602 16.416 17.0322 15.504C16.5042 14.592 16.2402 13.512 16.2402 12.264V11.904C16.2402 10.656 16.5042 9.584 17.0322 8.688C17.5602 7.776 18.2802 7.072 19.1922 6.576C20.1202 6.08 21.1762 5.832 22.3602 5.832C23.5442 5.832 24.6002 6.08 25.5282 6.576C26.4562 7.072 27.1842 7.776 27.7122 8.688C28.2402 9.584 28.5042 10.656 28.5042 11.904V12.264C28.5042 13.512 28.2402 14.592 27.7122 15.504C27.1842 16.416 26.4562 17.12 25.5282 17.616C24.6002 18.096 23.5442 18.336 22.3602 18.336ZM22.3602 16.128C23.4482 16.128 24.3282 15.784 25.0002 15.096C25.6882 14.392 26.0322 13.424 26.0322 12.192V11.976C26.0322 10.744 25.6962 9.784 25.0242 9.096C24.3522 8.392 23.4642 8.04 22.3602 8.04C21.2882 8.04 20.4082 8.392 19.7202 9.096C19.0482 9.784 18.7122 10.744 18.7122 11.976V12.192C18.7122 13.424 19.0482 14.392 19.7202 15.096C20.4082 15.784 21.2882 16.128 22.3602 16.128ZM36.4778 18.336C35.5018 18.336 34.5978 18.096 33.7658 17.616C32.9338 17.136 32.2618 16.448 31.7498 15.552C31.2538 14.64 31.0058 13.544 31.0058 12.264V11.904C31.0058 10.64 31.2538 9.552 31.7498 8.64C32.2458 7.728 32.9098 7.032 33.7418 6.552C34.5738 6.072 35.4858 5.832 36.4778 5.832C37.2458 5.832 37.8858 5.928 38.3978 6.12C38.9258 6.312 39.3578 6.56 39.6938 6.864C40.0298 7.152 40.2858 7.456 40.4618 7.776H40.8458V1.2H43.3178V18H40.8938V16.32H40.5098C40.2058 16.832 39.7418 17.296 39.1178 17.712C38.5098 18.128 37.6298 18.336 36.4778 18.336ZM37.1738 16.176C38.2458 16.176 39.1258 15.832 39.8138 15.144C40.5178 14.456 40.8698 13.472 40.8698 12.192V11.976C40.8698 10.712 40.5258 9.736 39.8378 9.048C39.1498 8.36 38.2618 8.016 37.1738 8.016C36.1178 8.016 35.2378 8.36 34.5338 9.048C33.8458 9.736 33.5018 10.712 33.5018 11.976V12.192C33.5018 13.472 33.8458 14.456 34.5338 15.144C35.2378 15.832 36.1178 16.176 37.1738 16.176ZM52.3808 18.336C51.1808 18.336 50.1328 18.088 49.2368 17.592C48.3408 17.08 47.6368 16.368 47.1248 15.456C46.6288 14.528 46.3808 13.456 46.3808 12.24V11.952C46.3808 10.72 46.6288 9.648 47.1248 8.736C47.6208 7.808 48.3088 7.096 49.1888 6.6C50.0848 6.088 51.1168 5.832 52.2848 5.832C53.4208 5.832 54.4128 6.088 55.2608 6.6C56.1248 7.096 56.7968 7.792 57.2768 8.688C57.7568 9.584 57.9968 10.632 57.9968 11.832V12.768H48.9008C48.9328 13.808 49.2768 14.64 49.9328 15.264C50.6048 15.872 51.4368 16.176 52.4288 16.176C53.3568 16.176 54.0528 15.968 54.5168 15.552C54.9968 15.136 55.3648 14.656 55.6208 14.112L57.6608 15.168C57.4368 15.616 57.1088 16.088 56.6768 16.584C56.2608 17.08 55.7088 17.496 55.0208 17.832C54.3328 18.168 53.4528 18.336 52.3808 18.336ZM48.9248 10.872H55.4768C55.4128 9.976 55.0928 9.28 54.5168 8.784C53.9408 8.272 53.1888 8.016 52.2608 8.016C51.3328 8.016 50.5728 8.272 49.9808 8.784C49.4048 9.28 49.0528 9.976 48.9248 10.872Z" fill="#E07B67"/>
<path d="M60.9004 18V1.2H63.4924V15.648H71.5804V18H60.9004ZM77.6991 18.336C76.8511 18.336 76.0911 18.192 75.4191 17.904C74.7631 17.616 74.2351 17.192 73.8351 16.632C73.4511 16.072 73.2591 15.392 73.2591 14.592C73.2591 13.776 73.4511 13.104 73.8351 12.576C74.2351 12.032 74.7711 11.624 75.4431 11.352C76.1311 11.08 76.9071 10.944 77.7711 10.944H81.3711V10.176C81.3711 9.488 81.1631 8.936 80.7471 8.52C80.3311 8.104 79.6911 7.896 78.8271 7.896C77.9791 7.896 77.3311 8.096 76.8831 8.496C76.4351 8.896 76.1391 9.416 75.9951 10.056L73.6911 9.312C73.8831 8.672 74.1871 8.096 74.6031 7.584C75.0351 7.056 75.6031 6.632 76.3071 6.312C77.0111 5.992 77.8591 5.832 78.8511 5.832C80.3871 5.832 81.5951 6.224 82.4751 7.008C83.3551 7.792 83.7951 8.904 83.7951 10.344V15.216C83.7951 15.696 84.0191 15.936 84.4671 15.936H85.4751V18H83.6271C83.0671 18 82.6111 17.856 82.2591 17.568C81.9071 17.28 81.7311 16.888 81.7311 16.392V16.32H81.3711C81.2431 16.56 81.0511 16.84 80.7951 17.16C80.5391 17.48 80.1631 17.76 79.6671 18C79.1711 18.224 78.5151 18.336 77.6991 18.336ZM78.0591 16.296C79.0511 16.296 79.8511 16.016 80.4591 15.456C81.0671 14.88 81.3711 14.096 81.3711 13.104V12.864H77.9151C77.2591 12.864 76.7311 13.008 76.3311 13.296C75.9311 13.568 75.7311 13.976 75.7311 14.52C75.7311 15.064 75.9391 15.496 76.3551 15.816C76.7711 16.136 77.3391 16.296 78.0591 16.296ZM94.7187 18.336C93.5667 18.336 92.6787 18.128 92.0547 17.712C91.4467 17.296 90.9907 16.832 90.6867 16.32H90.3027V18H87.8787V1.2H90.3507V7.776H90.7347C90.9267 7.456 91.1827 7.152 91.5027 6.864C91.8227 6.56 92.2467 6.312 92.7747 6.12C93.3027 5.928 93.9507 5.832 94.7187 5.832C95.7107 5.832 96.6227 6.072 97.4547 6.552C98.2867 7.032 98.9507 7.728 99.4467 8.64C99.9427 9.552 100.191 10.64 100.191 11.904V12.264C100.191 13.544 99.9347 14.64 99.4227 15.552C98.9267 16.448 98.2627 17.136 97.4307 17.616C96.6147 18.096 95.7107 18.336 94.7187 18.336ZM93.9987 16.176C95.0707 16.176 95.9507 15.832 96.6387 15.144C97.3427 14.456 97.6947 13.472 97.6947 12.192V11.976C97.6947 10.712 97.3507 9.736 96.6627 9.048C95.9747 8.36 95.0867 8.016 93.9987 8.016C92.9427 8.016 92.0627 8.36 91.3587 9.048C90.6707 9.736 90.3267 10.712 90.3267 11.976V12.192C90.3267 13.472 90.6707 14.456 91.3587 15.144C92.0627 15.832 92.9427 16.176 93.9987 16.176Z" fill="white"/>
</svg>
